<svg xmlns="http://www.w3.org/2000/svg" width="2500" height="1875" fill="none"><path fill="#FF0420" d="M0 0h2500v1875H0z"/><path fill="#FAFAF9" d="M758.045 862.814c-9.347-3.876-19.919-5.814-31.717-5.814-43.365 0-70.256 20.498-80.675 61.493-3.677 15.057-6.513 27.951-8.503 38.685-.768 4.77-1.15 8.795-1.15 12.075 0 15.653 5.745 27.728 17.238 36.227 11.645 8.35 26.585 12.52 44.818 12.52 22.064 0 39.686-4.99 52.863-14.98 13.177-10.139 22.449-25.419 27.812-45.842 3.216-12.522 5.974-25.418 8.274-38.685.766-4.77 1.148-8.721 1.148-11.851 0-10.435-2.68-19.38-8.043-26.833-5.363-7.604-12.717-13.268-22.065-16.995Zm-13.79 56.35c-1.839 10.435-4.521 22.659-8.045 36.673-2.605 10.136-6.971 17.664-13.1 22.584-5.977 4.919-13.254 7.379-21.836 7.379-14.709 0-22.064-6.857-22.064-20.572 0-3.28.306-6.41.919-9.391 2.758-14.461 5.516-26.685 8.274-36.673 2.605-10.137 6.895-17.665 12.871-22.585 6.13-4.919 13.483-7.379 22.065-7.379 14.556 0 21.835 6.783 21.835 20.349 0 3.279-.307 6.484-.919 9.615Zm203.286-49.642c-10.266-6.857-23.903-10.286-40.912-10.286h-61.137c-1.532 0-2.988.522-4.367 1.566-1.379 1.043-2.221 2.385-2.528 4.024l-31.718 145.344c-.306 1.49-.076 2.84.689 4.03.919 1.04 2.222 1.56 3.906 1.56h31.26c1.531 0 2.987-.52 4.366-1.56 1.379-1.04 2.223-2.39 2.529-4.03l10.573-48.967h31.028c20.073 0 35.855-4.1 47.348-12.299 11.645-8.199 19.382-20.87 23.214-38.014.919-4.025 1.379-7.901 1.379-11.627 0-12.97-5.211-22.883-15.63-29.741Zm-28.27 40.921c-1.532 6.41-4.75 11.329-9.653 14.758-4.752 3.429-10.344 5.143-16.779 5.143h-26.431l8.733-40.026h27.582c6.28 0 10.725 1.193 13.33 3.578 2.603 2.236 3.906 5.515 3.906 9.839 0 1.938-.229 4.174-.688 6.708Zm210.609-49.641c.61.894.91 1.788.91 2.683 0 .447-.07.894-.22 1.341l-5.29 23.927c-.31 1.64-1.15 2.981-2.53 4.025-1.22 1.043-2.68 1.565-4.37 1.565h-40.68l-25.51 115.827c-.31 1.64-1.15 2.99-2.53 4.03s-2.83 1.56-4.37 1.56h-30.33c-1.69 0-2.99-.52-3.91-1.56-.92-1.19-1.23-2.54-.92-4.03l25.51-115.827h-40.91c-1.686 0-2.989-.522-3.906-1.565-.768-1.193-.997-2.534-.691-4.025l5.287-23.927c.305-1.639 1.149-2.981 2.528-4.024 1.379-1.044 2.832-1.566 4.362-1.566h123.66c1.68 0 2.99.522 3.91 1.566Zm75.73 0c.61.894.92 1.788.92 2.683a4.2 4.2 0 0 1-.23 1.341l-31.72 145.344c-.31 1.64-1.15 2.99-2.53 4.03s-2.83 1.56-4.36 1.56h-31.03c-1.69 0-2.99-.52-3.91-1.56-.92-1.19-1.23-2.54-.92-4.03l31.95-145.344c.31-1.639 1.15-2.981 2.53-4.024 1.38-1.044 2.83-1.566 4.36-1.566h31.03c1.69 0 2.99.522 3.91 1.566Zm203.13 0c.61.894.92 1.788.92 2.683a4.2 4.2 0 0 1-.23 1.341l-31.72 145.344c-.31 1.64-1.15 2.99-2.53 4.03s-2.84 1.56-4.37 1.56H1343c-1.68 0-2.99-.52-3.9-1.56-.77-1.19-1-2.54-.69-4.03l17.92-82.509-35.16 45.393c-1.53 1.64-2.99 2.908-4.37 3.802-1.38.894-2.99 1.341-4.83 1.341h-11.95c-3.22 0-5.44-1.714-6.66-5.143l-16.32-47.405-18.39 84.521c-.31 1.64-1.15 2.99-2.53 4.03s-2.83 1.56-4.36 1.56h-27.58c-1.69 0-2.99-.52-3.91-1.56-.92-1.04-1.23-2.39-.92-4.03l31.72-145.344c.3-1.639 1.15-2.981 2.53-4.024 1.37-1.044 2.91-1.566 4.59-1.566h24.82c3.68 0 6.06 1.64 7.13 4.92l25.05 70.437 55.85-70.437c.77-1.193 1.84-2.311 3.22-3.354 1.53-1.044 3.37-1.566 5.52-1.566h25.05c1.68 0 2.99.522 3.91 1.566Zm87.26 0c.62.894.92 1.788.92 2.683a4.2 4.2 0 0 1-.23 1.341l-31.72 145.344c-.3 1.64-1.15 2.99-2.53 4.03-1.37 1.04-2.83 1.56-4.36 1.56h-31.03c-1.69 0-2.99-.52-3.91-1.56-.91-1.19-1.23-2.54-.91-4.03l31.94-145.344c.31-1.639 1.15-2.981 2.53-4.024 1.38-1.044 2.83-1.566 4.37-1.566h31.03c1.68 0 2.98.522 3.9 1.566Zm154.17 17.665c5.06 6.112 7.59 12.224 7.59 18.336 0 1.789-.08 3.056-.23 3.801-.31 1.342-1 2.46-2.07 3.354-.92.895-2.07 1.342-3.45 1.342h-30.8c-3.36 0-5.67-1.267-6.89-3.801-.16-3.429-2-6.336-5.52-8.721-3.52-2.385-8.12-3.578-13.79-3.578-6.74 0-12.33 1.193-16.78 3.578-4.28 2.385-6.97 5.888-8.04 10.51-.16.745-.23 1.714-.23 2.907 0 3.577 2.15 6.559 6.44 8.944 4.44 2.236 12.17 4.547 23.21 6.932 17.16 3.28 29.64 7.975 37.46 14.088 7.97 6.112 11.95 14.236 11.95 24.373 0 3.429-.46 7.156-1.37 11.18-3.37 15.206-11.57 26.759-24.6 34.658-12.87 7.75-30.11 11.63-51.71 11.63-13.49 0-25.05-1.79-34.71-5.37-9.5-3.57-16.7-8.34-21.61-14.308-4.74-5.963-7.12-12.597-7.12-19.901 0-1.193.16-2.981.46-5.367.31-1.342.92-2.46 1.84-3.354 1.08-.894 2.3-1.342 3.68-1.342h29.42c1.84 0 3.22.298 4.13.895 1.08.596 2.15 1.64 3.22 3.131 1.07 3.875 3.53 7.081 7.36 9.615 3.98 2.534 9.42 3.801 16.32 3.801 8.73 0 15.78-1.341 21.15-4.025 5.35-2.684 8.57-6.335 9.64-10.957.16-.596.24-1.49.24-2.683 0-3.727-2.38-6.634-7.13-8.722-4.75-2.235-13.49-4.844-26.21-7.826-14.86-3.13-26.11-7.826-33.78-14.087-7.66-6.41-11.49-14.758-11.49-25.045 0-3.577.46-7.229 1.38-10.956 3.06-13.864 10.64-24.747 22.75-32.648 12.26-7.901 28.05-11.851 47.35-11.851 11.64 0 21.98 2.013 31.03 6.038 9.04 4.025 16.01 9.167 20.91 15.429ZM1865 863.485a4.2 4.2 0 0 1-.23 1.341l-31.72 145.344c-.31 1.64-1.15 2.99-2.53 4.03s-2.83 1.56-4.37 1.56h-27.81c-1.68 0-2.98-.52-3.9-1.56-.77-1.19-1-2.54-.69-4.03l17.92-82.509-35.16 45.393c-1.54 1.64-2.99 2.908-4.37 3.802-1.38.894-2.99 1.341-4.83 1.341h-11.95c-3.22 0-5.44-1.714-6.66-5.143l-16.32-47.405-18.39 84.521c-.31 1.64-1.15 2.99-2.53 4.03s-2.83 1.56-4.37 1.56h-27.57c-1.69 0-2.99-.52-3.91-1.56-.92-1.04-1.23-2.39-.92-4.03l31.72-145.344c.31-1.639 1.15-2.981 2.53-4.024 1.37-1.044 2.91-1.566 4.59-1.566h24.83c3.67 0 6.05 1.64 7.12 4.92l25.05 70.437 55.86-70.437c.76-1.193 1.83-2.311 3.21-3.354 1.53-1.044 3.37-1.566 5.52-1.566h25.05c1.68 0 2.99.522 3.91 1.566.61.894.92 1.788.92 2.683Z"/></svg>