<svg xmlns="http://www.w3.org/2000/svg" xmlns:xlink="http://www.w3.org/1999/xlink" viewBox="0 0 75 24"><path d="M 70.954 19.8 C 70.93 19.816 70.906 19.824 70.886 19.844 L 70.61 20.06 C 69.933 20.581 69.124 20.908 68.272 21.004 C 67.855 21.053 67.435 21.071 67.015 21.056 C 66.315 21.034 65.622 20.906 64.961 20.676 C 64.296 20.445 63.681 20.092 63.149 19.636 C 62.652 19.209 62.24 18.695 61.933 18.12 C 61.633 17.557 61.422 16.951 61.309 16.324 C 61.189 15.654 61.148 14.972 61.188 14.292 C 61.248 13.372 61.471 12.484 61.913 11.664 C 62.444 10.676 63.206 9.912 64.191 9.364 C 65.016 8.914 65.932 8.651 66.873 8.592 C 67.096 8.576 67.319 8.576 67.542 8.572 C 67.777 8.572 68.02 8.592 68.259 8.616 C 69.187 8.693 70.065 9.059 70.768 9.66 L 70.865 9.74 C 70.879 9.752 70.896 9.76 70.914 9.764 C 70.95 9.744 70.946 9.72 70.95 9.696 L 70.95 9.34 C 70.954 9.264 70.959 9.184 70.975 9.116 C 71.007 8.976 71.092 8.88 71.238 8.852 C 71.304 8.835 71.372 8.825 71.441 8.824 L 73.645 8.824 C 73.694 8.824 73.747 8.832 73.795 8.84 C 74.018 8.876 74.099 9.024 74.12 9.212 C 74.128 9.276 74.128 9.336 74.128 9.4 L 74.128 20.392 L 74.107 20.524 C 74.071 20.692 73.953 20.776 73.791 20.8 C 73.735 20.812 73.682 20.812 73.625 20.812 L 71.81 20.812 L 71.696 20.804 C 71.556 20.801 71.424 20.735 71.339 20.624 C 71.273 20.542 71.22 20.45 71.181 20.352 L 71.019 19.92 C 71.007 19.876 70.999 19.832 70.954 19.8 Z M 70.95 14.716 L 70.95 14.12 C 70.95 13.952 70.95 13.78 70.926 13.616 C 70.88 13.257 70.757 12.912 70.565 12.604 C 70.292 12.18 69.895 11.848 69.427 11.652 C 69.034 11.479 68.612 11.377 68.182 11.352 C 67.815 11.319 67.445 11.342 67.084 11.42 C 66.524 11.541 66.004 11.803 65.577 12.18 C 64.923 12.767 64.526 13.582 64.47 14.452 C 64.451 14.649 64.449 14.847 64.462 15.044 C 64.477 15.396 64.54 15.744 64.649 16.08 C 65.07 17.414 66.329 18.317 67.745 18.3 C 68.267 18.298 68.784 18.198 69.269 18.004 C 70.285 17.578 70.945 16.594 70.946 15.504 C 70.954 15.236 70.95 14.976 70.95 14.716 Z M 42.509 9.764 L 42.521 9.668 L 42.521 9.364 C 42.523 9.284 42.531 9.203 42.546 9.124 C 42.565 8.985 42.67 8.873 42.809 8.844 C 42.875 8.828 42.943 8.82 43.012 8.82 L 45.216 8.82 C 45.272 8.821 45.328 8.828 45.382 8.84 C 45.553 8.868 45.674 8.98 45.694 9.204 C 45.703 9.264 45.703 9.324 45.703 9.384 L 45.703 20.38 C 45.703 20.408 45.703 20.44 45.694 20.468 C 45.67 20.668 45.544 20.788 45.338 20.808 C 45.277 20.816 45.216 20.816 45.155 20.816 L 43.417 20.816 L 43.251 20.808 C 43.129 20.804 43.015 20.751 42.935 20.66 C 42.866 20.583 42.811 20.495 42.772 20.4 C 42.724 20.268 42.671 20.14 42.627 20.008 L 42.57 19.864 C 42.565 19.847 42.555 19.832 42.541 19.82 C 42.489 19.816 42.469 19.844 42.444 19.864 C 42.249 20.024 42.045 20.172 41.832 20.308 C 41.282 20.658 40.663 20.889 40.017 20.988 C 39.58 21.055 39.137 21.082 38.696 21.068 C 37.423 21.071 36.18 20.687 35.137 19.968 C 34.353 19.419 33.732 18.672 33.342 17.804 C 33.106 17.287 32.943 16.741 32.856 16.18 C 32.767 15.637 32.733 15.086 32.754 14.536 C 32.769 13.734 32.934 12.942 33.241 12.2 C 33.768 10.94 34.631 9.98 35.847 9.324 C 36.649 8.896 37.537 8.647 38.448 8.596 C 38.724 8.568 39.004 8.568 39.283 8.58 C 39.932 8.604 40.564 8.7 41.164 8.948 C 41.593 9.128 41.982 9.376 42.339 9.668 C 42.392 9.696 42.428 9.744 42.509 9.764 Z M 42.521 14.712 L 42.521 13.96 C 42.52 13.787 42.502 13.614 42.469 13.444 C 42.36 12.849 42.027 12.317 41.536 11.956 C 41.072 11.623 40.527 11.417 39.956 11.36 C 39.753 11.336 39.555 11.336 39.352 11.336 C 39.077 11.335 38.803 11.37 38.537 11.44 C 37.732 11.636 37.035 12.13 36.588 12.82 C 36.269 13.311 36.082 13.874 36.045 14.456 C 35.997 14.997 36.057 15.542 36.223 16.06 C 36.643 17.405 37.915 18.312 39.34 18.284 C 39.587 18.289 39.835 18.267 40.077 18.22 C 40.481 18.156 40.867 18.012 41.212 17.796 C 42.016 17.316 42.511 16.459 42.521 15.532 C 42.529 15.264 42.521 14.992 42.521 14.712 Z M 54.01 16.172 C 54.071 16.136 54.075 16.092 54.091 16.052 L 54.395 15.264 L 56.689 9.296 C 56.709 9.236 56.742 9.176 56.766 9.12 C 56.851 8.92 57.013 8.824 57.232 8.816 L 59.895 8.816 C 59.95 8.814 60.004 8.821 60.057 8.836 C 60.227 8.884 60.308 9.024 60.272 9.192 C 60.254 9.249 60.234 9.305 60.211 9.36 C 59.952 9.96 59.692 10.56 59.441 11.16 L 57.86 14.844 L 56.243 18.612 L 55.51 20.332 C 55.472 20.417 55.43 20.499 55.384 20.58 C 55.298 20.721 55.145 20.808 54.979 20.812 L 53.2 20.812 C 53.155 20.812 53.103 20.812 53.058 20.804 C 52.917 20.803 52.787 20.732 52.71 20.616 C 52.656 20.539 52.61 20.457 52.572 20.372 C 52.413 20.011 52.258 19.648 52.106 19.284 L 50.404 15.312 L 48.341 10.504 L 47.859 9.384 C 47.834 9.331 47.814 9.276 47.798 9.22 C 47.745 9.02 47.867 8.856 48.073 8.832 C 48.11 8.824 48.142 8.832 48.175 8.832 L 50.736 8.832 C 50.813 8.832 50.89 8.836 50.967 8.856 C 51.078 8.877 51.174 8.942 51.234 9.036 C 51.279 9.1 51.315 9.176 51.344 9.252 L 51.648 10.036 L 53.69 15.352 L 53.954 16.04 C 53.958 16.072 53.986 16.116 54.01 16.172 Z M 29.962 11.984 L 29.962 20.336 C 29.951 20.584 29.754 20.784 29.504 20.804 L 29.362 20.808 L 27.243 20.808 L 27.089 20.804 C 26.882 20.784 26.711 20.636 26.663 20.436 C 26.647 20.376 26.647 20.308 26.639 20.244 L 26.639 3.776 C 26.639 3.704 26.639 3.628 26.655 3.56 C 26.689 3.314 26.899 3.13 27.15 3.124 L 29.379 3.124 C 29.443 3.124 29.516 3.136 29.581 3.144 C 29.802 3.194 29.961 3.384 29.97 3.608 L 29.97 3.788 C 29.962 6.52 29.962 9.256 29.962 11.984 Z M 23.397 4.496 C 23.311 6.369 21.729 7.833 19.831 7.796 L 19.826 7.796 C 15.377 7.68 16.828 10.98 16.828 10.98 C 16.896 11.116 16.965 11.244 17.022 11.384 C 17.298 11.984 17.5 12.612 17.618 13.26 C 17.666 13.536 17.707 13.812 17.735 14.084 C 17.752 14.336 17.752 14.588 17.752 14.84 C 17.752 15.156 17.743 15.468 17.703 15.78 C 17.367 18.621 15.568 21.09 12.945 22.308 C 11.809 22.849 10.563 23.126 9.302 23.116 C 9.087 23.112 8.868 23.112 8.649 23.096 C 7.657 23.023 6.686 22.773 5.784 22.356 C 2.084 20.672 0.132 16.619 1.144 12.724 C 1.444 11.576 1.962 10.528 2.712 9.604 C 4.05 7.93 5.991 6.831 8.131 6.536 C 8.621 6.464 9.111 6.428 9.61 6.448 C 10.627 6.488 11.6 6.688 12.528 7.064 L 12.54 7.068 L 12.702 7.14 C 16.601 8.728 16.467 5.188 16.43 4.7 C 16.372 4.189 16.432 3.673 16.605 3.188 C 17.083 1.826 18.371 0.904 19.831 0.876 C 21.325 0.839 22.679 1.744 23.198 3.128 C 23.35 3.568 23.418 4.032 23.397 4.496 Z" fill="rgb(255, 255, 255)"></path></svg>
