<svg xmlns="http://www.w3.org/2000/svg" xmlns:xlink="http://www.w3.org/1999/xlink" viewBox="0 0 105.987 20" overflow="visible"><path d="M 35.339 15.178 C 35.862 15.772 36.958 16.316 38.104 16.316 C 41.343 16.316 43.111 13.67 43.111 10.506 C 43.111 7.316 41.343 4.696 38.104 4.696 C 36.958 4.696 35.862 5.24 35.339 5.834 L 35.339 4.944 L 31.427 4.944 L 31.427 19.999 L 35.339 19.999 L 35.339 15.179 Z M 35.339 9.023 C 35.671 8.382 36.335 7.981 37.057 7.984 C 38.403 7.984 39.2 9.072 39.2 10.506 C 39.2 11.94 38.403 13.003 37.057 13.003 C 36.31 13.003 35.637 12.583 35.339 11.965 Z M 54.753 16.069 L 54.753 9.245 C 54.753 6.353 52.934 4.672 49.745 4.672 C 46.855 4.672 44.937 6.378 44.613 8.528 L 48.301 8.528 C 48.475 8.034 48.898 7.713 49.621 7.713 C 50.568 7.713 50.991 8.331 50.991 9.048 L 50.991 9.765 C 50.543 9.443 49.447 9.146 48.525 9.146 C 46.083 9.146 44.215 10.531 44.215 12.682 C 44.215 15.03 46.083 16.267 48.3 16.267 C 49.496 16.267 50.617 15.871 50.991 15.5 L 50.991 16.069 Z M 50.991 12.954 C 50.742 13.399 50.069 13.695 49.347 13.695 C 48.574 13.695 47.802 13.374 47.802 12.608 C 47.802 11.866 48.575 11.544 49.347 11.544 C 50.069 11.544 50.742 11.841 50.991 12.311 Z M 64.308 4.894 C 64.133 4.795 63.734 4.696 63.236 4.696 C 62.116 4.696 61.243 5.191 60.695 5.932 L 60.695 4.944 L 56.784 4.944 L 56.784 16.068 L 60.695 16.068 L 60.695 9.542 C 60.895 8.751 61.617 8.281 62.688 8.281 C 63.311 8.281 63.834 8.38 64.308 8.627 Z M 75.706 16.069 L 75.706 9.245 C 75.706 6.353 73.887 4.672 70.698 4.672 C 67.808 4.672 65.89 6.378 65.566 8.528 L 69.253 8.528 C 69.428 8.034 69.851 7.713 70.573 7.713 C 71.52 7.713 71.944 8.331 71.944 9.048 L 71.944 9.765 C 71.495 9.443 70.399 9.146 69.478 9.146 C 67.036 9.146 65.168 10.531 65.168 12.682 C 65.168 15.03 67.036 16.267 69.253 16.267 C 70.449 16.267 71.57 15.871 71.944 15.5 L 71.944 16.069 Z M 71.944 12.954 C 71.694 13.399 71.022 13.695 70.3 13.695 C 69.527 13.695 68.755 13.374 68.755 12.608 C 68.755 11.866 69.527 11.544 70.3 11.544 C 71.022 11.544 71.695 11.841 71.944 12.311 Z M 81.648 0 L 77.737 0 L 77.737 16.07 L 81.648 16.07 Z M 87.807 0 L 83.896 0 L 83.896 16.07 L 87.807 16.07 Z M 96.837 12.29 C 96.613 13.057 95.99 13.403 95.193 13.403 C 94.072 13.403 93.373 12.686 93.249 11.351 L 100.499 11.351 L 100.499 10.387 C 100.499 7.074 98.556 4.8 95.118 4.8 C 91.879 4.8 89.488 7.173 89.488 10.61 C 89.488 14.07 91.754 16.42 95.193 16.42 C 98.107 16.42 100.051 14.862 100.449 12.29 Z M 95.117 7.816 C 96.089 7.816 96.662 8.508 96.712 9.423 L 93.324 9.423 C 93.574 8.385 94.196 7.816 95.118 7.816 Z M 105.987 0 L 102.075 0 L 102.075 16.07 L 105.987 16.07 Z M 9.987 0 L 16.646 0 L 3.329 13.333 L 0 10 Z M 9.988 20 L 23.305 6.667 L 26.633 10 L 16.645 20 Z M 18.31 1.667 L 4.995 15 L 8.325 18.334 L 21.64 5 Z" fill="rgb(0,0,0)"></path></svg>