<svg xmlns="http://www.w3.org/2000/svg" height="800" width="1200" xml:space="preserve" y="0" x="0" id="Layer_1" version="1.1" viewBox="-47.91 -67.968 415.22 407.808"><style id="style10500" type="text/css">.st0{display:none;fill:#77787b}.st1{fill:#0078ff}.st2{fill:#00e89d}.st3{fill:#949a9f}</style><path transform="translate(0 .071)" id="polygon10502" class="st0" d="M643.2 249.3l-9.8 28.2h-7.8l-10.2-28.2v28.2h-10.2v-45.4h12.1l12.2 31.6 12-31.6h11.9v45.4h-10.2z"/><path id="rect10504" class="st0" d="M521.9 213.171h16.7v86.2h-16.7z"/><path id="rect10506" class="st0" d="M462.5 213.171h16.7v86.2h-16.7z"/><g transform="translate(0 .071)" id="g10530"><path id="rect10508" class="st1" transform="matrix(-.4988 .8667 -.8667 -.4988 263.641 18.039)" d="M60.9 56.9h131.4v56.6H60.9z"/><path id="rect10510" class="st1" transform="matrix(.4988 -.8667 .8667 .4988 55.246 266.03)" d="M192 56.9h131.4v56.6H192z"/><path id="path10512" d="M318.7 28.3c0 15.6-12.7 28.3-28.3 28.3-15.6 0-28.3-12.7-28.3-28.3 0-15.6 12.7-28.3 28.3-28.3 15.7 0 28.3 12.7 28.3 28.3" class="st2"/><path id="path10514" d="M93.9 170.5c-9.8 0-19.3-5.1-24.6-14.2L3.8 42.4C-4 28.9.6 11.6 14.2 3.8 27.8-4 45.1.6 52.9 14.2L118.4 128c7.8 13.6 3.1 30.9-10.4 38.7-4.5 2.6-9.3 3.8-14.1 3.8z" class="st2"/><path id="path10516" d="M224.9 170.5c-9.8 0-19.3-5.1-24.6-14.2L134.8 42.4c-7.8-13.6-3.1-30.9 10.4-38.7 13.6-7.8 30.9-3.1 38.7 10.4L249.4 128c7.8 13.6 3.1 30.9-10.4 38.7-4.4 2.6-9.3 3.8-14.1 3.8z" class="st2"/><path id="polygon10518" class="st3" d="M36.2 227.1h-7.8l-8.8 28.6-8.9-28.6H0l15.4 43.6h8.3l8.6-27.4 8.7 27.4h8.2l15.4-43.6H53.9l-8.8 28.6z"/><path id="path10520" d="M111.2 270.7l-1.7-5.3H94l-1.7 5.3H81.6l15.6-43.6h9.3l15.8 43.6zm-9.4-31.1l-5.4 17.9H107z" class="st3"/><path id="polygon10522" class="st3" d="M159.4 244.3l-9.3-17.2h-11.8l16 28.1v15.5h10.2v-15.5l15.9-28.1h-11.7z"/><path id="polygon10524" class="st3" d="M239.2 243.7l-9.4 27h-7.5l-9.7-27v27h-9.8v-43.6h11.6l11.7 30.4 11.5-30.4H249v43.6h-9.8z"/><g id="g10528"><path id="path10526" d="M273.3 248.9c0-12 8.6-22.9 23.1-22.9 14.5 0 23 11 23 22.9 0 11.9-8.6 22.9-23 22.9-14.5.1-23.1-10.9-23.1-22.9m35.9 0c0-7.2-4.9-13.8-12.8-13.8-8 0-12.8 6.7-12.8 13.8 0 7.1 4.8 13.8 12.8 13.8 7.9.1 12.8-6.6 12.8-13.8" class="st3"/></g></g></svg>